<mxfile host="app.diagrams.net" modified="2023-03-20T10:18:58.352Z" agent="5.0 (Macintosh; Intel Mac OS X 10_15_7) AppleWebKit/537.36 (KHTML, like Gecko) Chrome/111.0.0.0 Safari/537.36" etag="5ZcjcfL6A8HIe_aY5Lwo" version="21.0.6" type="github">
  <diagram name="第 1 页" id="c0f3yW9Gil210HKwcmj0">
    <mxGraphModel dx="1306" dy="771" grid="1" gridSize="10" guides="1" tooltips="1" connect="1" arrows="1" fold="1" page="1" pageScale="1" pageWidth="2339" pageHeight="3300" math="0" shadow="0">
      <root>
        <mxCell id="0" />
        <mxCell id="1" parent="0" />
        <mxCell id="c8blgeXkBUVHCLApOhyp-27" value="" style="rounded=0;whiteSpace=wrap;html=1;" vertex="1" parent="1">
          <mxGeometry x="790" y="170" width="140" height="220" as="geometry" />
        </mxCell>
        <mxCell id="c8blgeXkBUVHCLApOhyp-23" value="" style="rounded=0;whiteSpace=wrap;html=1;" vertex="1" parent="1">
          <mxGeometry x="986" y="167.5" width="140" height="225" as="geometry" />
        </mxCell>
        <mxCell id="c8blgeXkBUVHCLApOhyp-19" value="" style="rounded=0;whiteSpace=wrap;html=1;" vertex="1" parent="1">
          <mxGeometry x="596" y="170" width="130" height="220" as="geometry" />
        </mxCell>
        <mxCell id="c8blgeXkBUVHCLApOhyp-13" value="" style="rounded=0;whiteSpace=wrap;html=1;" vertex="1" parent="1">
          <mxGeometry x="376" y="170" width="150" height="230" as="geometry" />
        </mxCell>
        <mxCell id="c8blgeXkBUVHCLApOhyp-7" value="" style="rounded=0;whiteSpace=wrap;html=1;" vertex="1" parent="1">
          <mxGeometry x="166" y="170" width="160" height="220" as="geometry" />
        </mxCell>
        <mxCell id="R-X1Kzi6aorfEDV6HySt-5" style="edgeStyle=orthogonalEdgeStyle;rounded=1;orthogonalLoop=1;jettySize=auto;html=1;exitX=1;exitY=0.5;exitDx=0;exitDy=0;entryX=0;entryY=0.5;entryDx=0;entryDy=0;" parent="1" source="R-X1Kzi6aorfEDV6HySt-1" target="R-X1Kzi6aorfEDV6HySt-4" edge="1">
          <mxGeometry relative="1" as="geometry" />
        </mxCell>
        <mxCell id="3fjGZQysSv-eZ1hzzoia-2" style="edgeStyle=orthogonalEdgeStyle;rounded=1;orthogonalLoop=1;jettySize=auto;html=1;exitX=1;exitY=0.5;exitDx=0;exitDy=0;entryX=0;entryY=0.5;entryDx=0;entryDy=0;" parent="1" source="R-X1Kzi6aorfEDV6HySt-1" target="3fjGZQysSv-eZ1hzzoia-1" edge="1">
          <mxGeometry relative="1" as="geometry" />
        </mxCell>
        <mxCell id="Xv7DBx726RWobwCdAjJy-3" style="edgeStyle=orthogonalEdgeStyle;rounded=1;orthogonalLoop=1;jettySize=auto;html=1;exitX=0;exitY=0.5;exitDx=0;exitDy=0;entryX=1;entryY=0.5;entryDx=0;entryDy=0;" parent="1" source="R-X1Kzi6aorfEDV6HySt-1" target="Xv7DBx726RWobwCdAjJy-1" edge="1">
          <mxGeometry relative="1" as="geometry" />
        </mxCell>
        <mxCell id="nt6Zr_V4z6T5L9FxD4BE-2" style="edgeStyle=orthogonalEdgeStyle;rounded=1;orthogonalLoop=1;jettySize=auto;html=1;exitX=0;exitY=0.5;exitDx=0;exitDy=0;entryX=1;entryY=0.5;entryDx=0;entryDy=0;" parent="1" source="R-X1Kzi6aorfEDV6HySt-1" target="nt6Zr_V4z6T5L9FxD4BE-1" edge="1">
          <mxGeometry relative="1" as="geometry" />
        </mxCell>
        <mxCell id="R-X1Kzi6aorfEDV6HySt-1" value="oj" style="rounded=1;whiteSpace=wrap;html=1;" parent="1" vertex="1">
          <mxGeometry x="586" y="731.25" width="80" height="50" as="geometry" />
        </mxCell>
        <mxCell id="R-X1Kzi6aorfEDV6HySt-9" style="edgeStyle=orthogonalEdgeStyle;rounded=1;orthogonalLoop=1;jettySize=auto;html=1;exitX=1;exitY=0.5;exitDx=0;exitDy=0;entryX=0;entryY=0.5;entryDx=0;entryDy=0;" parent="1" source="R-X1Kzi6aorfEDV6HySt-4" target="R-X1Kzi6aorfEDV6HySt-8" edge="1">
          <mxGeometry relative="1" as="geometry" />
        </mxCell>
        <mxCell id="R-X1Kzi6aorfEDV6HySt-4" value="graph" style="rounded=1;whiteSpace=wrap;html=1;" parent="1" vertex="1">
          <mxGeometry x="716" y="566.25" width="90" height="40" as="geometry" />
        </mxCell>
        <mxCell id="R-X1Kzi6aorfEDV6HySt-13" style="edgeStyle=orthogonalEdgeStyle;rounded=1;orthogonalLoop=1;jettySize=auto;html=1;exitX=1;exitY=0.5;exitDx=0;exitDy=0;" parent="1" source="R-X1Kzi6aorfEDV6HySt-8" target="R-X1Kzi6aorfEDV6HySt-12" edge="1">
          <mxGeometry relative="1" as="geometry" />
        </mxCell>
        <mxCell id="R-X1Kzi6aorfEDV6HySt-8" value="最短路" style="rounded=1;whiteSpace=wrap;html=1;" parent="1" vertex="1">
          <mxGeometry x="856" y="571.25" width="120" height="30" as="geometry" />
        </mxCell>
        <mxCell id="R-X1Kzi6aorfEDV6HySt-12" value="&lt;ol&gt;&lt;li&gt;BFS&lt;/li&gt;&lt;li&gt;Dijistra&lt;/li&gt;&lt;li&gt;balleman-ford&lt;/li&gt;&lt;li&gt;floyd&lt;/li&gt;&lt;li&gt;A*&lt;/li&gt;&lt;/ol&gt;&lt;div&gt;&lt;br&gt;&lt;/div&gt;" style="rounded=1;whiteSpace=wrap;html=1;align=left;" parent="1" vertex="1">
          <mxGeometry x="1016" y="540" width="140" height="92.5" as="geometry" />
        </mxCell>
        <mxCell id="3fjGZQysSv-eZ1hzzoia-4" style="edgeStyle=orthogonalEdgeStyle;rounded=1;orthogonalLoop=1;jettySize=auto;html=1;exitX=1;exitY=0.5;exitDx=0;exitDy=0;entryX=0;entryY=0.5;entryDx=0;entryDy=0;" parent="1" source="3fjGZQysSv-eZ1hzzoia-1" target="3fjGZQysSv-eZ1hzzoia-3" edge="1">
          <mxGeometry relative="1" as="geometry" />
        </mxCell>
        <mxCell id="3fjGZQysSv-eZ1hzzoia-8" style="edgeStyle=orthogonalEdgeStyle;rounded=1;orthogonalLoop=1;jettySize=auto;html=1;exitX=1;exitY=0.5;exitDx=0;exitDy=0;entryX=0;entryY=0.5;entryDx=0;entryDy=0;" parent="1" source="3fjGZQysSv-eZ1hzzoia-1" target="3fjGZQysSv-eZ1hzzoia-7" edge="1">
          <mxGeometry relative="1" as="geometry" />
        </mxCell>
        <mxCell id="3fjGZQysSv-eZ1hzzoia-11" style="edgeStyle=orthogonalEdgeStyle;rounded=1;orthogonalLoop=1;jettySize=auto;html=1;exitX=1;exitY=0.5;exitDx=0;exitDy=0;entryX=0;entryY=0.5;entryDx=0;entryDy=0;" parent="1" source="3fjGZQysSv-eZ1hzzoia-1" target="3fjGZQysSv-eZ1hzzoia-10" edge="1">
          <mxGeometry relative="1" as="geometry" />
        </mxCell>
        <mxCell id="3fjGZQysSv-eZ1hzzoia-13" style="edgeStyle=orthogonalEdgeStyle;rounded=1;orthogonalLoop=1;jettySize=auto;html=1;entryX=0;entryY=0.5;entryDx=0;entryDy=0;" parent="1" source="3fjGZQysSv-eZ1hzzoia-1" target="3fjGZQysSv-eZ1hzzoia-12" edge="1">
          <mxGeometry relative="1" as="geometry" />
        </mxCell>
        <mxCell id="3fjGZQysSv-eZ1hzzoia-17" style="edgeStyle=orthogonalEdgeStyle;rounded=1;orthogonalLoop=1;jettySize=auto;html=1;exitX=1;exitY=0.5;exitDx=0;exitDy=0;entryX=0;entryY=0.5;entryDx=0;entryDy=0;" parent="1" source="3fjGZQysSv-eZ1hzzoia-1" target="3fjGZQysSv-eZ1hzzoia-16" edge="1">
          <mxGeometry relative="1" as="geometry" />
        </mxCell>
        <mxCell id="3fjGZQysSv-eZ1hzzoia-19" style="edgeStyle=orthogonalEdgeStyle;rounded=1;orthogonalLoop=1;jettySize=auto;html=1;exitX=1;exitY=0.5;exitDx=0;exitDy=0;entryX=0;entryY=0.5;entryDx=0;entryDy=0;" parent="1" source="3fjGZQysSv-eZ1hzzoia-1" target="3fjGZQysSv-eZ1hzzoia-18" edge="1">
          <mxGeometry relative="1" as="geometry" />
        </mxCell>
        <mxCell id="3fjGZQysSv-eZ1hzzoia-1" value="数学" style="rounded=1;whiteSpace=wrap;html=1;" parent="1" vertex="1">
          <mxGeometry x="716" y="831.25" width="90" height="40" as="geometry" />
        </mxCell>
        <mxCell id="3fjGZQysSv-eZ1hzzoia-3" value="判断是否是素数" style="rounded=0;whiteSpace=wrap;html=1;" parent="1" vertex="1">
          <mxGeometry x="866" y="740" width="100" height="28.75" as="geometry" />
        </mxCell>
        <mxCell id="3fjGZQysSv-eZ1hzzoia-7" value="两数、多数最大公约数" style="rounded=0;whiteSpace=wrap;html=1;" parent="1" vertex="1">
          <mxGeometry x="866" y="920" width="150" height="30" as="geometry" />
        </mxCell>
        <mxCell id="3fjGZQysSv-eZ1hzzoia-10" value="两数、多数最小公倍数" style="rounded=0;whiteSpace=wrap;html=1;" parent="1" vertex="1">
          <mxGeometry x="866" y="970" width="150" height="30" as="geometry" />
        </mxCell>
        <mxCell id="3fjGZQysSv-eZ1hzzoia-12" value="求一个数的所有素数" style="rounded=0;whiteSpace=wrap;html=1;" parent="1" vertex="1">
          <mxGeometry x="866" y="781.25" width="130" height="28.75" as="geometry" />
        </mxCell>
        <mxCell id="3fjGZQysSv-eZ1hzzoia-16" value="求多个数的所有素数" style="rounded=0;whiteSpace=wrap;html=1;" parent="1" vertex="1">
          <mxGeometry x="866" y="820" width="130" height="30" as="geometry" />
        </mxCell>
        <mxCell id="3fjGZQysSv-eZ1hzzoia-18" value="求多个数的公共素数" style="rounded=0;whiteSpace=wrap;html=1;" parent="1" vertex="1">
          <mxGeometry x="866" y="860" width="120" height="34" as="geometry" />
        </mxCell>
        <mxCell id="Xv7DBx726RWobwCdAjJy-5" style="edgeStyle=orthogonalEdgeStyle;rounded=1;orthogonalLoop=1;jettySize=auto;html=1;exitX=0;exitY=0.5;exitDx=0;exitDy=0;entryX=1;entryY=0.5;entryDx=0;entryDy=0;" parent="1" source="Xv7DBx726RWobwCdAjJy-1" target="Xv7DBx726RWobwCdAjJy-4" edge="1">
          <mxGeometry relative="1" as="geometry" />
        </mxCell>
        <mxCell id="Xv7DBx726RWobwCdAjJy-8" style="edgeStyle=orthogonalEdgeStyle;rounded=1;orthogonalLoop=1;jettySize=auto;html=1;exitX=0;exitY=0.5;exitDx=0;exitDy=0;entryX=1;entryY=0.5;entryDx=0;entryDy=0;" parent="1" source="Xv7DBx726RWobwCdAjJy-1" target="Xv7DBx726RWobwCdAjJy-6" edge="1">
          <mxGeometry relative="1" as="geometry" />
        </mxCell>
        <mxCell id="Xv7DBx726RWobwCdAjJy-1" value="DP" style="rounded=1;whiteSpace=wrap;html=1;" parent="1" vertex="1">
          <mxGeometry x="446" y="653.5" width="100" height="41.25" as="geometry" />
        </mxCell>
        <mxCell id="Xv7DBx726RWobwCdAjJy-4" value="计数DP/2585" style="rounded=0;whiteSpace=wrap;html=1;" parent="1" vertex="1">
          <mxGeometry x="301" y="620" width="95" height="34.75" as="geometry" />
        </mxCell>
        <mxCell id="Xv7DBx726RWobwCdAjJy-6" value="背包问题" style="rounded=0;whiteSpace=wrap;html=1;" parent="1" vertex="1">
          <mxGeometry x="306" y="686" width="80" height="28.75" as="geometry" />
        </mxCell>
        <mxCell id="4DcOTyK1AXmUQ5a3hMAk-1" style="edgeStyle=orthogonalEdgeStyle;rounded=1;orthogonalLoop=1;jettySize=auto;html=1;exitX=0;exitY=0.5;exitDx=0;exitDy=0;" parent="1" source="nt6Zr_V4z6T5L9FxD4BE-1" target="nt6Zr_V4z6T5L9FxD4BE-3" edge="1">
          <mxGeometry relative="1" as="geometry" />
        </mxCell>
        <mxCell id="nt6Zr_V4z6T5L9FxD4BE-1" value="区间问题" style="rounded=1;whiteSpace=wrap;html=1;" parent="1" vertex="1">
          <mxGeometry x="456" y="820" width="80" height="49" as="geometry" />
        </mxCell>
        <mxCell id="nt6Zr_V4z6T5L9FxD4BE-3" value="线段树" style="rounded=0;whiteSpace=wrap;html=1;" parent="1" vertex="1">
          <mxGeometry x="290" y="828.75" width="117" height="31.25" as="geometry" />
        </mxCell>
        <mxCell id="c8blgeXkBUVHCLApOhyp-3" value="链表问题" style="rounded=1;whiteSpace=wrap;html=1;" vertex="1" parent="1">
          <mxGeometry x="191" y="190" width="110" height="30" as="geometry" />
        </mxCell>
        <mxCell id="c8blgeXkBUVHCLApOhyp-4" value="二叉树问题" style="rounded=1;whiteSpace=wrap;html=1;" vertex="1" parent="1">
          <mxGeometry x="191" y="230" width="110" height="30" as="geometry" />
        </mxCell>
        <mxCell id="c8blgeXkBUVHCLApOhyp-5" value="栈/单调/双栈" style="rounded=1;whiteSpace=wrap;html=1;" vertex="1" parent="1">
          <mxGeometry x="191" y="270" width="110" height="30" as="geometry" />
        </mxCell>
        <mxCell id="c8blgeXkBUVHCLApOhyp-6" value="队列/单调/双端队列" style="rounded=1;whiteSpace=wrap;html=1;" vertex="1" parent="1">
          <mxGeometry x="191" y="310" width="110" height="40" as="geometry" />
        </mxCell>
        <mxCell id="c8blgeXkBUVHCLApOhyp-8" value="双指针" style="rounded=1;whiteSpace=wrap;html=1;" vertex="1" parent="1">
          <mxGeometry x="396" y="180" width="100" height="40" as="geometry" />
        </mxCell>
        <mxCell id="c8blgeXkBUVHCLApOhyp-9" value="滑动窗口" style="rounded=1;whiteSpace=wrap;html=1;" vertex="1" parent="1">
          <mxGeometry x="396" y="230" width="100" height="40" as="geometry" />
        </mxCell>
        <mxCell id="c8blgeXkBUVHCLApOhyp-10" value="哈希表" style="rounded=1;whiteSpace=wrap;html=1;" vertex="1" parent="1">
          <mxGeometry x="396" y="280" width="100" height="40" as="geometry" />
        </mxCell>
        <mxCell id="c8blgeXkBUVHCLApOhyp-11" value="" style="rounded=0;whiteSpace=wrap;html=1;" vertex="1" parent="1">
          <mxGeometry x="726" y="640" width="120" height="60" as="geometry" />
        </mxCell>
        <mxCell id="c8blgeXkBUVHCLApOhyp-12" value="快慢指针" style="rounded=1;whiteSpace=wrap;html=1;" vertex="1" parent="1">
          <mxGeometry x="396" y="340" width="100" height="40" as="geometry" />
        </mxCell>
        <mxCell id="c8blgeXkBUVHCLApOhyp-14" value="贪心" style="rounded=1;whiteSpace=wrap;html=1;" vertex="1" parent="1">
          <mxGeometry x="616" y="190" width="80" height="30" as="geometry" />
        </mxCell>
        <mxCell id="c8blgeXkBUVHCLApOhyp-15" value="" style="rounded=0;whiteSpace=wrap;html=1;" vertex="1" parent="1">
          <mxGeometry x="726" y="640" width="120" height="60" as="geometry" />
        </mxCell>
        <mxCell id="c8blgeXkBUVHCLApOhyp-16" value="优先队列" style="rounded=1;whiteSpace=wrap;html=1;" vertex="1" parent="1">
          <mxGeometry x="616" y="235" width="80" height="35" as="geometry" />
        </mxCell>
        <mxCell id="c8blgeXkBUVHCLApOhyp-17" value="思维逻辑" style="rounded=1;whiteSpace=wrap;html=1;" vertex="1" parent="1">
          <mxGeometry x="616" y="330" width="80" height="40" as="geometry" />
        </mxCell>
        <mxCell id="c8blgeXkBUVHCLApOhyp-18" value="任务调度执行" style="rounded=1;whiteSpace=wrap;html=1;" vertex="1" parent="1">
          <mxGeometry x="616" y="280" width="80" height="40" as="geometry" />
        </mxCell>
        <mxCell id="c8blgeXkBUVHCLApOhyp-20" value="搜索问题" style="rounded=1;whiteSpace=wrap;html=1;" vertex="1" parent="1">
          <mxGeometry x="996" y="187.5" width="110" height="40" as="geometry" />
        </mxCell>
        <mxCell id="c8blgeXkBUVHCLApOhyp-21" value="DFS" style="rounded=1;whiteSpace=wrap;html=1;" vertex="1" parent="1">
          <mxGeometry x="996" y="237.5" width="110" height="35" as="geometry" />
        </mxCell>
        <mxCell id="c8blgeXkBUVHCLApOhyp-22" value="BFS" style="rounded=1;whiteSpace=wrap;html=1;" vertex="1" parent="1">
          <mxGeometry x="996" y="282.5" width="110" height="40" as="geometry" />
        </mxCell>
        <mxCell id="c8blgeXkBUVHCLApOhyp-24" value="排序问题" style="rounded=1;whiteSpace=wrap;html=1;" vertex="1" parent="1">
          <mxGeometry x="806" y="180" width="104" height="40" as="geometry" />
        </mxCell>
        <mxCell id="c8blgeXkBUVHCLApOhyp-25" value="selet kth&lt;br&gt;" style="rounded=1;whiteSpace=wrap;html=1;" vertex="1" parent="1">
          <mxGeometry x="806" y="235" width="104" height="45" as="geometry" />
        </mxCell>
        <mxCell id="c8blgeXkBUVHCLApOhyp-26" value="top k" style="rounded=1;whiteSpace=wrap;html=1;" vertex="1" parent="1">
          <mxGeometry x="806" y="295" width="104" height="45" as="geometry" />
        </mxCell>
        <mxCell id="c8blgeXkBUVHCLApOhyp-29" value="搜索子集问题" style="rounded=1;whiteSpace=wrap;html=1;" vertex="1" parent="1">
          <mxGeometry x="996" y="330" width="114" height="40" as="geometry" />
        </mxCell>
      </root>
    </mxGraphModel>
  </diagram>
</mxfile>
